<svg xmlns="http://www.w3.org/2000/svg" xmlns:xlink="http://www.w3.org/1999/xlink" viewBox="0 0 513 513"><defs><style>.cls-1{stroke:#000;stroke-miterlimit:10;fill:url(#radial-gradient);}.cls-2{fill:#595c61;}</style><radialGradient id="radial-gradient" cx="114.83" cy="564.17" r="683.7" gradientUnits="userSpaceOnUse"><stop offset="0.01" stop-color="#f9ea35"/><stop offset="0.7" stop-color="#ee3078"/><stop offset="1" stop-color="#1a30ea"/></radialGradient></defs><title>instagram hover</title><g id="Layer_2" data-name="Layer 2"><g id="Layer_1-2" data-name="Layer 1"><rect class="cls-1" x="0.5" y="0.5" width="512" height="512" rx="138.59"/><path class="cls-2" d="M373.91.5H139.09C62.67.5.5,62.67.5,139.09V373.91C.5,450.33,62.67,512.5,139.09,512.5H373.91c76.42,0,138.59-62.17,138.59-138.59V139.09C512.5,62.67,450.33.5,373.91.5ZM482.48,373.91A108.69,108.69,0,0,1,373.91,482.48H139.09A108.69,108.69,0,0,1,30.52,373.91V139.09A108.69,108.69,0,0,1,139.09,30.52H373.91A108.69,108.69,0,0,1,482.48,139.09Z"/><path class="cls-2" d="M256.5,116.5c-77.2,0-140,62.8-140,140s62.8,140,140,140,140-62.8,140-140S333.7,116.5,256.5,116.5Zm0,250a110,110,0,1,1,110-110A110.11,110.11,0,0,1,256.5,366.48Z"/><path class="cls-2" d="M399.84,66.79a41.37,41.37,0,1,0,41.37,41.36A41.4,41.4,0,0,0,399.84,66.79Zm0,52.71a11.35,11.35,0,1,1,11.36-11.35A11.37,11.37,0,0,1,399.84,119.5Z"/></g></g></svg>