<svg xmlns="http://www.w3.org/2000/svg" viewBox="0 0 290.6 512"><defs><style>.cls-1{fill:#3b579d;}.cls-2{fill:#595c61;}</style></defs><title>facebook hover_1</title><g id="Layer_2" data-name="Layer 2"><g id="Layer_1-2" data-name="Layer 1"><path class="cls-1" d="M204.34,142V173.3h58.27a25.23,25.23,0,0,1,12.29,3.13,24.91,24.91,0,0,1,12.78,21.72l0,79.24a24.86,24.86,0,0,1-24.83,24.83H204.34V487.16A24.86,24.86,0,0,1,179.5,512h-82a24.86,24.86,0,0,1-24.84-24.84V302.23H24.84A24.87,24.87,0,0,1,0,277.39V198.14a24.86,24.86,0,0,1,24.84-24.83H72.67V133.62c0-39.34,12.36-72.82,35.73-96.8C128.07,16.63,154.31,4.41,185,1h87.36A24.88,24.88,0,0,1,290.6,24.94V98.52a24.86,24.86,0,0,1-24.83,24.83l-42.1,0c-12.84,0-16.11,2.57-16.81,3.36C205.71,128,204.34,131.74,204.34,142Z"/><path class="cls-2" d="M206.86,126.73c.7-.79,4-3.36,16.81-3.36l42.1,0A24.86,24.86,0,0,0,290.6,98.52V24.94A24.88,24.88,0,0,0,272.38,1a24.18,24.18,0,0,0-6.57-.9L203.28,0A162.62,162.62,0,0,0,185,1c-30.71,3.41-57,15.63-76.62,35.82C85,60.8,72.67,94.28,72.67,133.62v39.69H24.84A24.86,24.86,0,0,0,0,198.14v79.25a24.87,24.87,0,0,0,24.84,24.84H72.67V487.16A24.86,24.86,0,0,0,97.51,512h82a24.86,24.86,0,0,0,24.84-24.84V302.22h58.47a24.86,24.86,0,0,0,24.83-24.83l0-79.24a24.91,24.91,0,0,0-12.78-21.72,25.23,25.23,0,0,0-12.29-3.13H204.34V142C204.34,131.74,205.71,128,206.86,126.73Zm-16,76.59h66.76l0,68.89H190.9a16.6,16.6,0,0,0-16.58,16.58V482H102.69V288.79a16.6,16.6,0,0,0-16.58-16.58H30V203.32H86.11a16.6,16.6,0,0,0,16.58-16.58V133.62c0-63.9,38.54-103.6,100.56-103.6l57.34.09V93.34H223.66c-11.75,0-28.6,1.4-39.3,13.52-8.85,10-10,23.36-10,35.08v44.79A16.6,16.6,0,0,0,190.9,203.32Z"/></g></g></svg>