<svg xmlns="http://www.w3.org/2000/svg" viewBox="0 0 512 512"><defs><style>.cls-1{fill:#0274b3;}.cls-2{fill:#595c61;}</style></defs><title>linkedin hover</title><g id="Layer_2" data-name="Layer 2"><g id="Layer_1-2" data-name="Layer 1"><path class="cls-1" d="M437,0H75A75.08,75.08,0,0,0,0,75V437a75.08,75.08,0,0,0,75,75H437a75.08,75.08,0,0,0,75-75V75A75.08,75.08,0,0,0,437,0ZM121,150V120h30v30Zm0,242V240h30V392ZM295,252a59.41,59.41,0,0,1,36-12h.06C363,240,391,270.26,391,304.69V392H361V315a45,45,0,0,0-90,0v77H241V240h30v30Z"/><path class="cls-2" d="M437,0H75A75.08,75.08,0,0,0,0,75V437a75.08,75.08,0,0,0,75,75H437a75.08,75.08,0,0,0,75-75V75A75.08,75.08,0,0,0,437,0Zm45,437a45.05,45.05,0,0,1-45,45H75a45.05,45.05,0,0,1-45-45V75A45.05,45.05,0,0,1,75,30H437a45.05,45.05,0,0,1,45,45Z"/><path class="cls-2" d="M91,210V422h90V210Zm60,182H121V240h30Z"/><path class="cls-2" d="M331.09,210H331a89.78,89.78,0,0,0-30,5.1V210H211V422h90V315a15,15,0,0,1,30,0V422h90V304.69C421,256.14,381.62,210.05,331.09,210ZM391,392H361V315a45,45,0,0,0-90,0v77H241V240h30v30l24-18a59.41,59.41,0,0,1,36-12h.06C363,240,391,270.26,391,304.69Z"/><path class="cls-2" d="M91,90v90h90V90Zm60,60H121V120h30Z"/></g></g></svg>