<svg xmlns="http://www.w3.org/2000/svg" viewBox="0 0 512 422.71"><defs><style>.cls-1{fill:#595c61;}</style></defs><title>twi</title><g id="Layer_2" data-name="Layer 2"><g id="Layer_1-2" data-name="Layer 1"><path class="cls-1" d="M504.84,48.59a23.79,23.79,0,0,0-6.94-4.79q2.6-5.49,4.65-11.23c3.61-9.32,1.73-18.91-5.07-25.71a23.83,23.83,0,0,0-26.64-4.69c-18.86,8.08-37,15.73-52.13,20.67C401.13,13.4,372.05,0,348.61,0h-.21c-32.13.45-62.24,13.72-84.79,37.37a125.4,125.4,0,0,0-33.86,72.29C159,94.13,118,71.39,72.33,23.48l-5.78-5.79a17.71,17.71,0,0,0-28.36,4.6L35,28.64C21.29,55,17,81.94,22.2,108.86a125.19,125.19,0,0,0,9.42,28.78A24.79,24.79,0,0,0,19.82,141C11,145.75,6.14,156.87,8.3,167.68l.13.68.2.66a161.66,161.66,0,0,0,33.11,59.34,24.44,24.44,0,0,0-7.28,3.71A23.94,23.94,0,0,0,26.12,260c11.45,32.26,30.68,54.55,58.36,67.43-17.36,5.06-36.48,7.66-58.34,8a26.76,26.76,0,0,0-24.42,16.8l-.3.82a26.18,26.18,0,0,0,6.89,27.64l.57.57.63.51c32.31,26,99.85,40.95,185.31,40.95,150.7,0,273.66-131.79,276.73-295.08,18.36-11.9,32.24-30.87,39.47-54.16l.23-.82a25.89,25.89,0,0,0-6.41-24.06ZM451,104.91a17.68,17.68,0,0,0-9.44,15.65v.82c0,72.55-25.91,140.82-73,192.23-46.67,51-108.39,79.07-173.8,79.07-68,0-126.07-10.42-156.52-27.64,35.22-1.87,64.43-9.47,91.15-23.63a17.71,17.71,0,0,0-5.27-33.1c-31.35-5.45-51.7-19.72-64.43-45.66a79.28,79.28,0,0,0,23.5,5.08,17.7,17.7,0,0,0,11.32-32.25C71.86,219.91,53.8,198.81,43.29,176a81.86,81.86,0,0,0,16.51,6.34,17.71,17.71,0,0,0,17.87-28.79c-13.63-15.58-22.62-33-26-50.41C48.34,86,50.31,68.57,57.52,51.3,107.8,101.84,156.16,126,237.77,142a17.7,17.7,0,0,0,21.14-17.37c0-51.43,40.27-93.85,89.8-94.61,13.42,0,35.68,8,59.58,21.32A19.2,19.2,0,0,0,423.07,53C436.49,48.88,452,42.74,468.24,35.9a96.13,96.13,0,0,1-6.69,10.59,17.71,17.71,0,0,0,17.06,27.89C472.39,88,462.83,98.65,451,104.91Z"/></g></g></svg>